HIERARCHY
ROOT pelvis
{
  OFFSET 0 100 0
  CHANNELS 6 Xposition Yposition Zposition Zrotation Xrotation Yrotation
  JOINT pelvis_right_femur
  {
    OFFSET -10.78128 -3.44521 -0.5502486
    CHANNELS 3 Zrotation Xrotation Yrotation
    JOINT right_femur_tibia
    {
      OFFSET -0.8047443 -44.0398 -0.1307829
      CHANNELS 3 Zrotation Xrotation Yrotation
      JOINT right_tibia_foot
      {
        OFFSET 3.006224 -47.83518 -5
        CHANNELS 3 Zrotation Xrotation Yrotation
        End Site
        {
          OFFSET 0 -5 15
        }
      }
    }
  }
  JOINT pelvis_left_femur
  {
    OFFSET 10.78128 -3.44521 -0.5502486
    CHANNELS 3 Zrotation Xrotation Yrotation
    JOINT left_femur_tibia
    {
      OFFSET 0.8047443 -44.0398 -0.1307829
      CHANNELS 3 Zrotation Xrotation Yrotation
      JOINT left_tibia_foot
      {
        OFFSET -4.370144 -48.10324 -4.275266
        CHANNELS 3 Zrotation Xrotation Yrotation
        End Site
        {
          OFFSET 0 -5 15
        }
      }
    }
  }
  JOINT pelvis_spine1
  {
    OFFSET 0 6.468898 -3.129235
    CHANNELS 3 Zrotation Xrotation Yrotation
    JOINT spine1
    {
      OFFSET 0 23.15396 4.99043
      CHANNELS 3 Zrotation Xrotation Yrotation
      JOINT spine2
      {
        OFFSET 0 20.79997 -5.064912
        CHANNELS 3 Zrotation Xrotation Yrotation
        JOINT neck
        {
          OFFSET 0 14.38658 9.616178
          CHANNELS 3 Zrotation Xrotation Yrotation
          End Site
          {
            OFFSET 0 20 0
          }
        }
      }
      JOINT right_manubrium
      {
        OFFSET -5.722621 16.35077 3.967754
        CHANNELS 3 Zrotation Xrotation Yrotation
        JOINT right_clavicle
        {
          OFFSET -13.16364 1.694482 -4.693211
          CHANNELS 3 Zrotation Xrotation Yrotation
          JOINT right_humerus
          {
            OFFSET -28.5034 -0.3100689 -2.792744
            CHANNELS 3 Zrotation Xrotation Yrotation
            JOINT right_radius
            {
              OFFSET -25.15693 0.02248979 -1.271978
              CHANNELS 3 Zrotation Xrotation Yrotation
              End Site
              {
                OFFSET -15 0 0
              }
            }
          }
        }
      }
      JOINT left_manubrium
      {
        OFFSET 5.722621 16.35077 3.967754
        CHANNELS 3 Zrotation Xrotation Yrotation
        JOINT left_clavicle
        {
          OFFSET 13.16364 1.694482 -4.693211
          CHANNELS 3 Zrotation Xrotation Yrotation
          JOINT left_humerus
          {
            OFFSET 29.39168 -1.063119 -2.237045
            CHANNELS 3 Zrotation Xrotation Yrotation
            JOINT left_radius
            {
              OFFSET 24.59957 -0.9528479 0.9047498
              CHANNELS 3 Zrotation Xrotation Yrotation
              End Site
              {
                OFFSET 15 -0 -0
              }
            }
          }
        }
      }
    }
  }
}
MOTION
Frames: 17
Frame Time: 0.0416666666667
-1998.992 98.17445 1206.652 -6.710295 10.51377 -148.4734 4.681388 7.174091 -9.668744 -0 16.44077 -0 -18.76623 9.267412 5.590937 -0.3442636 -7.868217 -2.646796 -0 21.87232 -0 7.467129 -4.657668 17.49587 0.4024936 -3.093574 4.662294 -1.271289 17.40165 -4.702197 1.018273 23.42029 3.978953 3.506813 -18.28116 3.919452 -5.958544 -26.17423 12.02282 95.1161 10.47291 -12.58317 -0 0 14.24661 -29.64694 8.088973 14.00609 5.99228 -27.32078 -10.54976 -90.13984 1.55343 21.85672 0 0 -7.709798 25.12712 14.20342 -19.92838
-2003.074 98.1856 1201.129 -6.645211 10.55513 -148.83 4.681383 7.171615 -9.669426 -0 16.44023 -0 -18.76706 9.269234 5.591149 -0.344602 -7.865447 -2.646616 -0 21.87474 -0 7.467351 -4.657863 17.49524 0.4026382 -3.093664 4.661894 -1.271195 17.40199 -4.702501 1.018246 23.42038 3.978945 3.506882 -18.28114 3.919357 -5.958855 -26.17375 12.02287 95.11723 10.47211 -12.58437 -0 0 14.24503 -29.64705 8.088921 14.00572 5.992389 -27.3216 -10.55025 -90.13926 1.552477 21.85537 0 0 -7.710844 25.12849 14.20313 -19.93014
-2007.121 98.1969 1195.582 -6.579779 10.59603 -149.1867 4.681479 7.169291 -9.670036 -0 16.43905 -0 -18.76784 9.27067 5.591325 -0.3448256 -7.863011 -2.646382 -0 21.87729 -0 7.467497 -4.657984 17.49461 0.402815 -3.093744 4.661558 -1.271071 17.4023 -4.702808 1.018215 23.42043 3.97892 3.506942 -18.28116 3.919246 -5.95914 -26.17333 12.02293 95.11824 10.47141 -12.58552 -0 0 14.24358 -29.64707 8.08891 14.00534 5.992498 -27.3224 -10.55067 -90.13873 1.551624 21.85416 0 0 -7.711926 25.12974 14.20287 -19.93174
-2011.135 98.2083 1190.009 -6.513999 10.63645 -149.5436 4.681667 7.167246 -9.670542 -0 16.43733 -0 -18.76854 9.271653 5.591456 -0.3449261 -7.861035 -2.646111 -0 21.87983 -0 7.467562 -4.658027 17.49403 0.403013 -3.093809 4.661302 -1.270926 17.40256 -4.7031 1.018185 23.42045 3.97888 3.50699 -18.28122 3.919128 -5.959382 -26.17299 12.02299 95.11907 10.47085 -12.58656 -0 0 14.24236 -29.64701 8.088938 14.00497 5.992602 -27.32314 -10.55101 -90.13831 1.550915 21.85314 0 0 -7.712982 25.1308 14.20266 -19.93309
-2015.113 98.21975 1184.412 -6.447875 10.67639 -149.9007 4.681932 7.165583 -9.670921 -0 16.43517 -0 -18.76912 9.272143 5.591537 -0.344902 -7.859614 -2.645817 -0 21.88222 -0 7.467545 -4.657993 17.4935 0.4032201 -3.093857 4.661138 -1.270768 17.40277 -4.703361 1.018155 23.42044 3.978828 3.507024 -18.28131 3.919009 -5.959571 -26.17274 12.02306 95.11968 10.47045 -12.58745 -0 0 14.24142 -29.64688 8.089003 14.00463 5.992695 -27.32378 -10.55125 -90.13799 1.550386 21.85237 0 0 -7.713953 25.13162 14.20251 -19.93412
-2019.058 98.23121 1178.79 -6.381416 10.71585 -150.2579 4.682257 7.164384 -9.671154 -0 16.43272 -0 -18.76956 9.272131 5.591565 -0.3447594 -7.858807 -2.645519 -0 21.88433 -0 7.46745 -4.657886 17.49308 0.4034246 -3.093885 4.661071 -1.270608 17.4029 -4.703579 1.018127 23.42039 3.978768 3.507043 -18.28144 3.918896 -5.959696 -26.17259 12.02313 95.12005 10.47023 -12.58814 -0 0 14.2408 -29.64667 8.089099 14.00434 5.992773 -27.32429 -10.55138 -90.1378 1.550059 21.85188 0 0 -7.714787 25.13215 14.20243 -19.93479
-2022.967 98.24264 1173.143 -6.314636 10.75483 -150.6153 4.682621 7.163698 -9.671235 -0 16.43013 -0 -18.76982 9.271635 5.591539 -0.3445103 -7.858639 -2.645233 -0 21.88606 -0 7.467285 -4.657715 17.49277 0.4036148 -3.093893 4.661103 -1.270453 17.40296 -4.703742 1.018104 23.42032 3.978701 3.507045 -18.28159 3.918795 -5.959753 -26.17256 12.02319 95.12017 10.47019 -12.58859 -0 0 14.24052 -29.64642 8.089221 14.00411 5.99283 -27.32463 -10.5514 -90.13775 1.549945 21.85169 0 0 -7.715443 25.13238 14.20242 -19.93507
-2026.842 98.254 1167.473 -6.247551 10.79333 -150.9729 4.683004 7.163547 -9.671164 -0 16.42754 -0 -18.76991 9.270701 5.591465 -0.3441726 -7.859095 -2.644976 -0 21.88731 -0 7.467062 -4.657491 17.49259 0.4037808 -3.09388 4.661228 -1.270313 17.40294 -4.703842 1.018086 23.42022 3.978634 3.507032 -18.28174 3.918711 -5.959742 -26.17264 12.02324 95.12003 10.47033 -12.58878 -0 0 14.2406 -29.64613 8.089359 14.00395 5.992865 -27.3248 -10.55131 -90.13783 1.550045 21.85179 0 0 -7.71589 25.13231 14.20248 -19.93496
-2030.681 98.26525 1161.779 -6.180178 10.83137 -151.3307 4.683381 7.163919 -9.67095 -0 16.4251 -0 -18.76982 9.269396 5.591347 -0.3437685 -7.860129 -2.64476 -0 21.88803 -0 7.466795 -4.65723 17.49254 0.4039139 -3.093848 4.661435 -1.270195 17.40285 -4.703878 1.018074 23.42011 3.97857 3.507005 -18.28191 3.918648 -5.959666 -26.17281 12.02328 95.11966 10.47064 -12.58873 -0 0 14.24101 -29.64582 8.089507 14.00388 5.992877 -27.3248 -10.55112 -90.13803 1.550343 21.85218 0 0 -7.71611 25.13194 14.2026 -19.93449
-2034.485 98.27636 1156.062 -6.112539 10.86895 -151.6887 4.683733 7.164775 -9.670611 -0 16.42294 -0 -18.76957 9.267807 5.591193 -0.3433229 -7.861661 -2.644596 -0 21.88821 -0 7.466501 -4.656947 17.49262 0.4040078 -3.093801 4.66171 -1.270104 17.4027 -4.703848 1.018069 23.41999 3.978511 3.506966 -18.28206 3.918609 -5.95953 -26.17307 12.02331 95.11908 10.47109 -12.58843 -0 0 14.24171 -29.64551 8.089655 14.00388 5.992866 -27.32463 -10.55085 -90.13834 1.550818 21.85281 0 0 -7.716099 25.13132 14.20277 -19.93368
-2038.254 98.28732 1150.321 -6.044652 10.90609 -152.0468 4.684041 7.16605 -9.670171 -0 16.42118 -0 -18.76917 9.266033 5.591014 -0.3428625 -7.863587 -2.644492 -0 21.88785 -0 7.466198 -4.656659 17.49283 0.4040588 -3.09374 4.662034 -1.270045 17.4025 -4.703757 1.01807 23.41986 3.978462 3.506917 -18.2822 3.918596 -5.959346 -26.1734 12.02333 95.11834 10.47166 -12.58792 -0 0 14.24267 -29.64522 8.089795 14.00396 5.992833 -27.3243 -10.5505 -90.13873 1.551434 21.85365 0 0 -7.715866 25.13049 14.20298 -19.9326
-2041.987 98.29812 1144.557 -5.976536 10.9428 -152.4051 4.684288 7.167657 -9.669656 -0 16.4199 -0 -18.76866 9.264181 5.590821 -0.3424137 -7.865785 -2.644451 -0 21.88699 -0 7.465902 -4.656383 17.49315 0.4040654 -3.09367 4.662389 -1.27002 17.40225 -4.703612 1.018077 23.41974 3.978424 3.506861 -18.28232 3.918608 -5.959124 -26.17378 12.02333 95.11748 10.4723 -12.58722 -0 0 14.24381 -29.64496 8.089919 14.00412 5.992781 -27.32385 -10.55011 -90.13919 1.552153 21.85464 0 0 -7.715432 25.1295 14.20322 -19.93132
-2045.685 98.30875 1138.77 -5.90821 10.97911 -152.7635 4.684464 7.169494 -9.6691 -0 16.41915 -0 -18.76807 9.262358 5.590624 -0.3420012 -7.868122 -2.644473 -0 21.8857 -0 7.465631 -4.656132 17.49355 0.4040289 -3.093595 4.662753 -1.27003 17.40198 -4.703424 1.01809 23.41964 3.9784 3.506802 -18.28241 3.918643 -5.95888 -26.17418 12.02332 95.11655 10.47298 -12.58639 -0 0 14.24506 -29.64474 8.090021 14.00433 5.992713 -27.3233 -10.5497 -90.13967 1.552931 21.85572 0 0 -7.714828 25.12841 14.20347 -19.92991
-2049.347 98.31922 1132.961 -5.839687 11.01502 -153.122 4.68456 7.171449 -9.668535 -0 16.41896 -0 -18.76742 9.260665 5.590436 -0.3416469 -7.870462 -2.644556 -0 21.88406 -0 7.465399 -4.655922 17.49401 0.4039529 -3.093519 4.663105 -1.270071 17.40171 -4.703204 1.018108 23.41954 3.97839 3.506744 -18.28247 3.9187 -5.958626 -26.17459 12.02329 95.11561 10.47365 -12.58548 -0 0 14.24635 -29.64459 8.090096 14.00459 5.992634 -27.32268 -10.54929 -90.14017 1.553722 21.85683 0 0 -7.714095 25.12728 14.20372 -19.92847
-2052.973 98.32955 1127.129 -5.77098 11.05055 -153.4807 4.684575 7.173408 -9.667993 -0 16.41931 -0 -18.76677 9.259193 5.590266 -0.3413688 -7.872672 -2.644691 -0 21.88218 -0 7.465217 -4.655761 17.4945 0.403843 -3.093447 4.663426 -1.270142 17.40144 -4.702966 1.018129 23.41947 3.978394 3.506689 -18.28249 3.918773 -5.958379 -26.17497 12.02325 95.11471 10.47429 -12.58454 -0 0 14.24761 -29.64449 8.09014 14.00487 5.992549 -27.32203 -10.54891 -90.14063 1.55448 21.8579 0 0 -7.713278 25.12619 14.20396 -19.92707
-2056.563 98.33978 1121.276 -5.702097 11.08571 -153.8393 4.68451 7.175261 -9.667503 -0 16.42017 -0 -18.76615 9.258016 5.590123 -0.3411797 -7.874634 -2.64487 -0 21.88018 -0 7.465093 -4.655658 17.49499 0.4037066 -3.093383 4.663698 -1.270236 17.40119 -4.702724 1.018153 23.41943 3.978412 3.50664 -18.28248 3.918859 -5.958151 -26.17531 12.02321 95.1139 10.47485 -12.58363 -0 0 14.24877 -29.64447 8.090154 14.00517 5.992463 -27.32139 -10.54857 -90.14105 1.555165 21.85887 0 0 -7.712426 25.12519 14.20417 -19.92579
-2060.116 98.34992 1115.4 -5.633041 11.12051 -154.1981 4.684371 7.176908 -9.667092 -0 16.42148 -0 -18.76559 9.25719 5.590015 -0.341087 -7.876245 -2.645081 -0 21.87817 -0 7.465034 -4.655615 17.49546 0.4035524 -3.09333 4.663909 -1.270349 17.40097 -4.702491 1.018177 23.41941 3.978442 3.506601 -18.28244 3.918951 -5.957955 -26.17559 12.02316 95.11322 10.47531 -12.58279 -0 0 14.24976 -29.6445 8.090135 14.00547 5.99238 -27.3208 -10.54829 -90.1414 1.555741 21.8597 0 0 -7.711589 25.12433 14.20434 -19.9247
